<?xml version="1.0" encoding="UTF-8"?>
<svg xmlns="http://www.w3.org/2000/svg" version="1.1" width="500px" height="500px" style="shape-rendering:geometricPrecision; text-rendering:geometricPrecision; image-rendering:optimizeQuality; fill-rule:evenodd; clip-rule:evenodd" xmlns:xlink="http://www.w3.org/1999/xlink">
<g><path style="opacity:1" fill="#f1f0eb" d="M -0.5,-0.5 C 166.167,-0.5 332.833,-0.5 499.5,-0.5C 499.5,166.167 499.5,332.833 499.5,499.5C 332.833,499.5 166.167,499.5 -0.5,499.5C -0.5,332.833 -0.5,166.167 -0.5,-0.5 Z"/></g>
<g><path style="opacity:1" fill="#375c6d" d="M 214.5,290.5 C 211.292,286.752 209.126,282.418 208,277.5C 207.502,280.817 207.335,284.15 207.5,287.5C 207.667,336.501 207.5,385.501 207,434.5C 202.977,446.102 194.81,450.936 182.5,449C 175.268,446.101 170.435,440.934 168,433.5C 167.5,371.834 167.333,310.168 167.5,248.5C 167.5,211.5 167.5,174.5 167.5,137.5C 167.334,130.492 167.5,123.492 168,116.5C 174.086,101.214 184.586,97.2143 199.5,104.5C 203.195,106.869 205.695,110.203 207,114.5C 207.5,127.496 207.667,140.496 207.5,153.5C 207.5,179.833 207.5,206.167 207.5,232.5C 207.333,244.838 207.5,257.171 208,269.5C 208.41,268.099 208.91,266.766 209.5,265.5C 213.978,255.756 221.645,251.422 232.5,252.5C 256.627,261.506 278.96,258.339 299.5,243C 320.896,222.92 327.396,198.754 319,170.5C 304.136,138.98 279.302,125.646 244.5,130.5C 233.709,131.548 225.876,127.214 221,117.5C 217.537,105.444 221.037,96.111 231.5,89.5C 289.686,78.6763 331.852,99.6763 358,152.5C 374.47,199.782 364.637,240.615 328.5,275C 293.43,302.587 255.43,307.754 214.5,290.5 Z"/></g>
<g><path style="opacity:1" fill="#43bfb8" d="M 231.5,89.5 C 221.037,96.111 217.537,105.444 221,117.5C 225.876,127.214 233.709,131.548 244.5,130.5C 229.877,134.32 217.544,141.987 207.5,153.5C 207.667,140.496 207.5,127.496 207,114.5C 205.695,110.203 203.195,106.869 199.5,104.5C 209.354,97.9079 220.021,92.9079 231.5,89.5 Z"/></g>
<g><path style="opacity:1" fill="#f1f0eb" d="M 232.5,252.5 C 223.675,247.686 215.675,241.686 208.5,234.5C 208.672,233.508 208.338,232.842 207.5,232.5C 207.5,206.167 207.5,179.833 207.5,153.5C 217.544,141.987 229.877,134.32 244.5,130.5C 279.302,125.646 304.136,138.98 319,170.5C 327.396,198.754 320.896,222.92 299.5,243C 278.96,258.339 256.627,261.506 232.5,252.5 Z"/></g>
<g><path style="opacity:1" fill="#44c1ba" d="M 167.5,137.5 C 167.5,174.5 167.5,211.5 167.5,248.5C 150.603,221.374 146.77,192.374 156,161.5C 158.608,152.802 162.442,144.802 167.5,137.5 Z"/></g>
<g><path style="opacity:1" fill="#3fa5a6" d="M 207.5,232.5 C 208.338,232.842 208.672,233.508 208.5,234.5C 208.172,245.014 208.506,255.347 209.5,265.5C 208.91,266.766 208.41,268.099 208,269.5C 207.5,257.171 207.333,244.838 207.5,232.5 Z"/></g>
<g><path style="opacity:1" fill="#43c0b9" d="M 208.5,234.5 C 215.675,241.686 223.675,247.686 232.5,252.5C 221.645,251.422 213.978,255.756 209.5,265.5C 208.506,255.347 208.172,245.014 208.5,234.5 Z"/></g>
<g><path style="opacity:1" fill="#43b4b1" d="M 214.5,290.5 C 212.046,289.773 209.713,288.773 207.5,287.5C 207.335,284.15 207.502,280.817 208,277.5C 209.126,282.418 211.292,286.752 214.5,290.5 Z"/></g>
<g><path style="opacity:1" fill="#456777" d="M 318.5,319.5 C 321.304,318.362 324.304,318.195 327.5,319C 326.584,319.374 325.75,319.874 325,320.5C 324.5,327.158 324.334,333.825 324.5,340.5C 327.518,340.665 330.518,340.498 333.5,340C 334.931,339.535 336.097,338.701 337,337.5C 337.711,339.367 337.211,340.867 335.5,342C 330.167,342.667 324.833,342.667 319.5,342C 320,341.5 320.5,341 321,340.5C 321.667,333.833 321.667,327.167 321,320.5C 320.329,319.748 319.496,319.414 318.5,319.5 Z"/></g>
<g><path style="opacity:1" fill="#3b5f70" d="M 339.5,319.5 C 341.966,318.366 344.633,318.199 347.5,319C 346.333,319.5 345.5,320.333 345,321.5C 344.5,327.825 344.334,334.158 344.5,340.5C 348.911,340.979 353.078,340.312 357,338.5C 357.507,339.996 357.007,341.163 355.5,342C 350.167,342.667 344.833,342.667 339.5,342C 340.667,341.5 341.5,340.667 342,339.5C 342.667,333.167 342.667,326.833 342,320.5C 341.329,319.748 340.496,319.414 339.5,319.5 Z"/></g>
<g><path style="opacity:1" fill="#436575" d="M 225.5,318.5 C 226.496,318.414 227.329,318.748 228,319.5C 230.667,326.167 233.333,332.833 236,339.5C 236.903,340.701 238.069,341.535 239.5,342C 236.833,342.667 234.167,342.667 231.5,342C 233.08,336.664 231.08,333.831 225.5,333.5C 221.066,333.028 218.732,335.028 218.5,339.5C 218.818,340.647 219.484,341.481 220.5,342C 218.167,342.667 215.833,342.667 213.5,342C 218.542,334.716 222.542,326.883 225.5,318.5 Z"/></g>
<g><path style="opacity:1" fill="#456777" d="M 241.5,319.5 C 243.966,318.366 246.633,318.199 249.5,319C 248.483,320.049 248.316,321.216 249,322.5C 250.308,324.641 251.808,326.641 253.5,328.5C 255.522,326.469 257.189,324.135 258.5,321.5C 258.023,320.522 257.357,319.689 256.5,319C 258.833,318.333 261.167,318.333 263.5,319C 260.547,322.408 257.713,325.908 255,329.5C 254.333,333.167 254.333,336.833 255,340.5C 255.75,341.126 256.584,341.626 257.5,342C 254.5,342.667 251.5,342.667 248.5,342C 249.416,341.626 250.25,341.126 251,340.5C 251.667,337.167 251.667,333.833 251,330.5C 248.752,327.672 246.752,324.672 245,321.5C 244.184,320.177 243.017,319.511 241.5,319.5 Z"/></g>
<g><path style="opacity:1" fill="#446576" d="M 297.5,318.5 C 313.101,316.581 318.601,322.914 314,337.5C 309.509,342.259 304.009,343.759 297.5,342C 290.93,338.345 288.763,332.845 291,325.5C 292.694,322.642 294.861,320.309 297.5,318.5 Z"/></g>
<g><path style="opacity:1" fill="#edede8" d="M 298.5,319.5 C 310.993,319.483 315.493,325.483 312,337.5C 304.326,343.776 298.326,342.443 294,333.5C 293.333,330.5 293.333,327.5 294,324.5C 295.193,322.503 296.693,320.836 298.5,319.5 Z"/></g>
<g><path style="opacity:1" fill="#e3e5e2" d="M 224.5,323.5 C 226.858,325.168 228.524,327.501 229.5,330.5C 227.257,331.474 224.924,331.808 222.5,331.5C 222.963,328.779 223.629,326.112 224.5,323.5 Z"/></g>
<g><path style="opacity:1" fill="#456677" d="M 265.5,319.5 C 269.646,318.353 273.98,318.186 278.5,319C 283.688,322.656 283.688,326.49 278.5,330.5C 280.791,335.256 284.125,339.089 288.5,342C 286.833,342.667 285.167,342.667 283.5,342C 280.593,338.849 277.926,335.516 275.5,332C 274.207,331.51 272.873,331.343 271.5,331.5C 271.335,334.518 271.502,337.518 272,340.5C 273.067,341.191 274.234,341.691 275.5,342C 272.167,342.667 268.833,342.667 265.5,342C 266.416,341.626 267.25,341.126 268,340.5C 268.667,333.833 268.667,327.167 268,320.5C 267.329,319.748 266.496,319.414 265.5,319.5 Z"/></g>
<g><path style="opacity:1" fill="#ecece8" d="M 271.5,319.5 C 278.803,319.602 280.803,322.769 277.5,329C 275.527,329.495 273.527,329.662 271.5,329.5C 271.5,326.167 271.5,322.833 271.5,319.5 Z"/></g>
</svg>
